<svg version="1.2" xmlns="http://www.w3.org/2000/svg" viewBox="0 0 512 512" width="500" height="500">
	<title>New Project</title>
	<style>
		.s0 { stroke: #797979;stroke-width: 5;stroke-linejoin: round;;fill: #e5e5e5 } 
		.s1 { paint-order:stroke fill markers;stroke: #797979;stroke-width: 4;stroke-linejoin: round;;fill: #e5e5e5 } 
	</style>
	<path id="ERROR" class="s0" aria-label="ERROR"  d="m137.2 137h-48.9v-74.9h48.9v11h-35.2v20.6h32v10.7h-32v21.6h35.2zm26.6 0h-13.7v-74.9h27.5q9 0 14.8 3.1 5.9 3 8.8 8.2 2.9 5.2 2.9 11.5 0 6.8-3.7 12.5-3.5 5.7-11.1 8.2l15.5 31.4h-15.7l-13.9-29.6h-11.4zm0-63.4v23.9h13q6.8 0 10-3.4 3.2-3.3 3.2-8.7 0-5.4-3.2-8.6-3.1-3.2-10.1-3.2zm66.6 63.4h-13.7v-74.9h27.5q9 0 14.8 3.2 5.9 2.9 8.8 8.2 2.9 5.1 2.9 11.4 0 6.9-3.7 12.6-3.5 5.6-11.1 8.2l15.5 31.3h-15.7l-13.9-29.5h-11.4zm0-63.4v23.8h13q6.8 0 10-3.3 3.2-3.3 3.2-8.8 0-5.3-3.2-8.5-3.1-3.2-10.1-3.2zm88 64.7q-11.2 0-19.7-4.9-8.3-4.9-13.1-13.6-4.7-8.8-4.7-20.2 0-11.5 4.7-20.2 4.8-8.7 13.1-13.6 8.5-5 19.7-5 11.1 0 19.6 5 8.5 4.9 13.2 13.6 4.7 8.7 4.7 20.2 0 11.4-4.7 20.2-4.7 8.7-13.2 13.6-8.5 4.9-19.6 4.9zm0-12.3q10.7 0 17-7.1 6.5-7 6.5-19.3 0-12.3-6.5-19.4-6.3-7.1-17-7.1-10.7 0-17.1 7.1-6.4 7.1-6.4 19.4 0 12.3 6.4 19.3 6.4 7.1 17.1 7.1zm63.3 11h-13.7v-74.9h27.5q8.9 0 14.7 3.1 5.9 3 8.8 8.3 2.9 5.1 2.9 11.4 0 6.9-3.6 12.5-3.6 5.7-11.2 8.3l15.5 31.3h-15.7l-13.9-29.5h-11.3zm0-63.5v23.9h12.9q6.9 0 10.1-3.3 3.2-3.3 3.2-8.8 0-5.3-3.2-8.6-3.1-3.2-10.2-3.2z"/>
	<path id="404" class="s0" aria-label="404"  d="m145.3 335h-29.1v-29.5h-78.4v-23.2l74.5-106.3h33v104.3h20.9v25.2h-20.9zm-27.3-127l-49.1 72.2h49.1zm136.3 129.7q-22 0-37.7-10.2-15.7-10.4-24.3-28.8-8.4-18.7-8.4-43.2 0-24.3 8.4-42.9 8.6-18.7 24.3-28.9 15.7-10.4 37.7-10.4 22 0 37.7 10.4 15.7 10.2 24.1 28.9 8.6 18.6 8.6 42.9 0 24.5-8.6 43.2-8.4 18.4-24.1 28.8-15.7 10.2-37.7 10.2zm0-26.1q17.9 0 29.3-15 11.4-15 11.4-41.1 0-26.1-11.4-41.1-11.4-15-29.3-15-18.2 0-29.5 15-11.2 15-11.2 41.1 0 26.1 11.2 41.1 11.3 15 29.5 15zm197.9 23.4h-29.1v-29.5h-78.4v-23.2l74.5-106.3h33v104.3h20.9v25.2h-20.9zm-27.3-127l-49.1 72.2h49.1z"/>
	<path id="THE REQUESTED URL WAS  NOT FOUND" class="s1" aria-label="THE REQUESTED URL WAS 
NOT FOUND"  d="m83.8 400h-3.8v-17.6h-6v-3h15.8v3h-6zm12.6 0h-3.8v-20.5h3.8v8.5h9.2v-8.5h3.8v20.5h-3.8v-8.9h-9.2zm30.4 0h-13.4v-20.6h13.4v3h-9.7v5.7h8.8v2.9h-8.8v5.9h9.7zm14.3 0h-3.7v-20.5h7.5q2.5 0 4.1 0.8 1.6 0.8 2.4 2.3 0.8 1.4 0.8 3.1 0 1.9-1 3.5-1 1.5-3.1 2.2l4.3 8.6h-4.3l-3.8-8.1h-3.2zm0-17.4v6.5h3.6q1.9 0 2.8-0.9 0.8-0.9 0.8-2.4 0-1.5-0.8-2.3-0.9-0.9-2.8-0.9zm28 17.4h-13.5v-20.6h13.5v3.1h-9.7v5.6h8.8v3h-8.8v5.9h9.7zm13.2 0.3q-3.1 0-5.4-1.3-2.3-1.4-3.7-3.7-1.3-2.5-1.3-5.6 0-3.1 1.3-5.5 1.4-2.4 3.7-3.8 2.3-1.3 5.4-1.3 3 0 5.4 1.3 2.3 1.4 3.6 3.8 1.3 2.4 1.3 5.5 0 2.9-1.2 5.3-1.1 2.3-3.2 3.6l4.8 5.1h-4.7l-3.2-3.7q-1.4 0.3-2.8 0.3zm0-3.3q2.9 0 4.6-2 1.8-1.9 1.8-5.3 0-3.4-1.8-5.3-1.7-2-4.6-2-3 0-4.7 2-1.8 1.9-1.8 5.3 0 3.4 1.8 5.3 1.7 2 4.7 2zm21.4 3.3q-2.2 0-4-0.8-1.9-0.9-3-2.8-1-1.8-1-4.6v-12.7h3.7v12.7q0 2.5 1.2 3.6 1.2 1.2 3.2 1.2 2.1 0 3.2-1.2 1.2-1.1 1.2-3.6v-12.7h3.8v12.7q0 2.8-1.1 4.6-1.2 1.9-3 2.8-1.9 0.8-4.2 0.8zm25.6-0.3h-13.5v-20.6h13.5v3h-9.7v5.7h8.8v2.9h-8.8v6h9.7zm10.6 0.3q-2.3 0-4-0.7-1.8-0.8-2.8-2.3-1-1.5-1-3.5h4q0 1.4 1 2.4 1 1 2.7 1 1.5 0 2.4-0.7 0.9-0.8 0.9-2 0-1.2-0.8-1.9-0.8-0.8-2.1-1.2-1.3-0.4-2.7-0.9-2.4-0.9-3.7-2.2-1.2-1.2-1.2-3.4 0-1.8 0.8-3.1 1-1.3 2.5-2 1.6-0.8 3.6-0.8 2.1 0 3.6 0.8 1.6 0.7 2.5 2 0.9 1.3 1 3.2h-4.1q0-1.1-0.8-1.9-0.8-0.9-2.3-0.9-1.2 0-2 0.6-0.9 0.6-0.9 1.8 0 1.1 0.7 1.7 0.6 0.6 1.7 1 1.2 0.4 2.6 0.9 1.5 0.5 2.8 1.2 1.3 0.7 2 1.9 0.8 1.1 0.8 3 0 1.6-0.8 3-0.9 1.3-2.5 2.2-1.6 0.8-3.9 0.8zm18.8-0.3h-3.8v-17.6h-6v-3h15.8v3h-6zm22.3 0h-13.5v-20.6h13.5v3h-9.7v5.7h8.8v2.9h-8.8v6h9.7zm10.5 0h-7v-20.6h7q3.7 0 6 1.3 2.3 1.2 3.5 3.6 1.1 2.3 1.1 5.4 0 3.1-1.1 5.4-1.2 2.3-3.5 3.6-2.3 1.3-6 1.3zm-3.2-17.4v14.1h3.1q2.6 0 4.1-0.8 1.5-0.8 2.1-2.4 0.6-1.6 0.6-3.8 0-2.2-0.6-3.8-0.6-1.6-2.1-2.5-1.5-0.8-4.1-0.8zm32.1 17.7q-2.3 0-4.1-0.9-1.9-0.9-2.9-2.7-1.1-1.8-1.1-4.6v-12.7h3.8v12.7q0 2.4 1.1 3.6 1.2 1.2 3.2 1.2 2.1 0 3.2-1.2 1.2-1.2 1.2-3.6v-12.7h3.8v12.7q0 2.8-1.1 4.6-1.1 1.8-3 2.7-1.9 0.9-4.1 0.9zm15.8-0.3h-3.8v-20.6h7.6q2.5 0 4.1 0.8 1.6 0.9 2.4 2.3 0.8 1.4 0.8 3.2 0 1.8-1 3.4-1 1.6-3.1 2.3l4.3 8.6h-4.4l-3.8-8.1h-3.1zm0-17.5v6.6h3.6q1.8 0 2.7-0.9 0.9-0.9 0.9-2.4 0-1.5-0.9-2.4-0.8-0.9-2.8-0.9zm27.5 17.5h-12.9v-20.6h3.8v17.6h9.1zm18.9 0h-4.4l-5.5-20.6h4.1l3.7 16.4 4.3-16.4h4.2l4.2 16.4 3.7-16.4h4.1l-5.6 20.6h-4.5l-4.1-15.2zm21.7 0h-4l7.6-20.6h4.2l7.5 20.6h-4l-1.6-4.8h-8.1zm5.7-16.3l-2.9 8.6h5.9zm19.4 16.6q-2.3 0-4-0.8-1.8-0.8-2.8-2.2-1-1.5-1-3.6h4q0 1.5 1 2.5 1 1 2.7 1 1.5 0 2.4-0.8 0.9-0.7 0.9-1.9 0-1.3-0.8-2-0.7-0.7-2-1.1-1.3-0.5-2.8-1-2.4-0.8-3.7-2.1-1.2-1.3-1.2-3.4 0-1.8 0.9-3.1 0.9-1.4 2.4-2.1 1.6-0.7 3.6-0.7 2.1 0 3.6 0.7 1.6 0.8 2.5 2.1 0.9 1.3 1 3.1h-4q-0.1-1-0.9-1.9-0.8-0.8-2.2-0.8-1.3 0-2.1 0.6-0.8 0.6-0.8 1.8 0 1.1 0.6 1.7 0.6 0.6 1.8 1 1.1 0.4 2.5 0.9 1.6 0.5 2.8 1.2 1.3 0.7 2 1.9 0.8 1.1 0.8 2.9 0 1.7-0.8 3-0.8 1.4-2.5 2.3-1.6 0.8-3.9 0.8zm-249.4 34.6h-3.8v-20.5h3.8l9.7 14.5v-14.5h3.7v20.5h-3.7l-9.7-14.4zm27.1 0.3q-3.1 0-5.4-1.3-2.3-1.4-3.7-3.8-1.3-2.4-1.3-5.5 0-3.2 1.3-5.5 1.4-2.5 3.7-3.8 2.3-1.4 5.4-1.4 3 0 5.3 1.4 2.4 1.3 3.7 3.8 1.3 2.3 1.3 5.5 0 3.1-1.3 5.5-1.3 2.4-3.7 3.8-2.3 1.3-5.3 1.3zm0-3.4q2.9 0 4.6-1.9 1.8-1.9 1.8-5.3 0-3.4-1.8-5.3-1.7-2-4.6-2-3 0-4.7 2-1.8 1.9-1.8 5.3 0 3.4 1.8 5.3 1.7 1.9 4.7 1.9zm21.4 3.1h-3.8v-17.6h-6v-3h15.8v3h-6zm19.6 0h-3.8v-20.6h13.3v3.1h-9.5v5.7h7.7v3h-7.7zm22.1 0.3q-3.1 0-5.4-1.3-2.3-1.4-3.6-3.7-1.3-2.5-1.3-5.6 0-3.2 1.3-5.5 1.3-2.4 3.6-3.8 2.3-1.4 5.4-1.4 3 0 5.4 1.4 2.3 1.4 3.6 3.8 1.3 2.3 1.3 5.5 0 3.1-1.3 5.6-1.3 2.3-3.6 3.7-2.4 1.3-5.4 1.3zm0-3.3q2.9 0 4.7-2 1.7-1.9 1.7-5.3 0-3.4-1.7-5.3-1.8-2-4.7-2-3 0-4.7 2-1.8 1.9-1.8 5.3 0 3.4 1.8 5.3 1.7 2 4.7 2zm21.5 3.3q-2.2 0-4-0.8-1.9-0.9-3-2.8-1-1.8-1-4.6v-12.7h3.7v12.7q0 2.5 1.2 3.6 1.2 1.2 3.2 1.2 2.1 0 3.2-1.2 1.2-1.1 1.2-3.6v-12.7h3.8v12.7q0 2.8-1.1 4.6-1.2 1.9-3 2.8-1.9 0.8-4.2 0.8zm15.9-0.3h-3.8v-20.6h3.8l9.7 14.5v-14.5h3.7v20.6h-3.7l-9.7-14.5zm24.5 0h-7.1v-20.6h7.1q3.6 0 5.9 1.3 2.4 1.3 3.5 3.6 1.1 2.3 1.1 5.4 0 3.1-1.1 5.5-1.1 2.3-3.5 3.6-2.3 1.2-5.9 1.2zm-3.3-17.4v14.2h3.1q2.6 0 4.1-0.8 1.5-0.9 2.1-2.5 0.7-1.5 0.7-3.8 0-2.2-0.7-3.8-0.6-1.6-2.1-2.4-1.5-0.9-4.1-0.9z"/>
</svg>