<svg id="svg" xmlns="http://www.w3.org/2000/svg" xmlns:xlink="http://www.w3.org/1999/xlink" width="400" height="400" viewBox="0, 0, 400,400"><g id="svgg"><path id="path0" d="M175.000 49.563 C 55.133 70.951,8.644 217.717,94.577 303.460 C 186.556 395.237,344.323 333.311,349.666 203.333 C 353.573 108.270,268.033 32.963,175.000 49.563 M209.873 76.258 C 216.493 80.895,216.616 82.083,216.642 141.684 C 216.665 192.335,216.525 196.411,214.636 199.931 C 209.199 210.071,194.135 210.071,188.697 199.931 C 185.890 194.698,185.539 87.626,188.311 82.265 C 192.158 74.826,203.369 71.703,209.873 76.258 M167.395 114.801 C 175.088 123.196,173.029 131.723,161.352 139.820 C 125.674 164.559,115.914 210.035,138.841 244.717 C 178.801 305.164,273.247 279.697,276.422 207.618 C 277.712 178.309,266.152 156.493,239.549 138.031 C 220.318 124.686,237.453 102.028,257.650 114.095 C 326.356 155.143,321.810 260.378,249.738 297.290 C 167.319 339.501,73.175 260.793,100.806 172.778 C 113.387 132.700,152.550 98.603,167.395 114.801 " stroke="none" fill="#f52c44" fill-rule="evenodd"></path></g></svg>