<svg version="1.2" xmlns="http://www.w3.org/2000/svg" viewBox="0 0 100 100" width="100" height="100">
	<title>image</title>
	<style>
		.s0 { fill: #000000 } 
	</style>
	<path class="s0" d="m60.3 11.8c-6.7-1.8-13.9-1.8-20.6 0l10.3-11.9zm-30 3.9c-6.1 3.5-11.2 8.5-14.7 14.6l-1-15.7zm-18.5 24c-1.9 6.8-1.9 13.9 0 20.7l-11.9-10.4zm3.9 30.1c3.4 6 8.5 11.1 14.6 14.6l-15.7 1.1zm24 18.5c6.7 1.8 13.9 1.8 20.6 0l-10.3 11.9zm30-3.9c6.1-3.5 11.2-8.6 14.7-14.6l1 15.7zm18.5-24c1.9-6.8 1.9-13.9 0-20.7l11.9 10.3zm-3.9-30c-3.4-6.1-8.5-11.1-14.6-14.6l15.7-1.1zm-34.3-13.6c-8.8 0-17.3 3.5-23.6 9.7-6.2 6.3-9.7 14.8-9.7 23.6 0 8.8 3.5 17.3 9.7 23.6 6.3 6.2 14.8 9.7 23.6 9.7 8.8 0 17.3-3.5 23.6-9.7 6.2-6.3 9.7-14.8 9.7-23.6 0-8.8-3.5-17.3-9.7-23.6-6.3-6.2-14.8-9.7-23.6-9.7z"/>
</svg>