<svg version="1.2" xmlns="http://www.w3.org/2000/svg" viewBox="0 0 900 900" width="900" height="900">
	<title>veridian_dark</title>
	<defs>
		<linearGradient id="g1" x2="1" gradientUnits="userSpaceOnUse" gradientTransform="matrix(526.305,0,0,665.956,30,359)">
			<stop offset="0" stop-color="#080d3d"/>
			<stop offset="1" stop-color="#4a71cc"/>
		</linearGradient>
		<linearGradient id="g2" x2="1" gradientUnits="userSpaceOnUse" gradientTransform="matrix(-556.384,0,0,-687.951,864,368)">
			<stop offset="0" stop-color="#ffd700"/>
			<stop offset="1" stop-color="#e7b43d"/>
		</linearGradient>
	</defs>
	<style>
		.s0 { fill: url(#g1);stroke: #000000;paint-order:stroke fill markers;stroke-linejoin: round;stroke-width: 10 } 
		.s1 { fill: url(#g2);stroke: #000000;paint-order:stroke fill markers;stroke-linejoin: round;stroke-width: 10 } 
		.s2 { fill: #020710;stroke: #000000;paint-order:stroke fill markers;stroke-linejoin: round;stroke-width: 10 } 
	</style>
	<g id="Folder 2">
		<g id="Folder 3">
			<path id="Shape 1" class="s0" d="m30 26l277 463 36-61-201-343 81-1c0 0 12 2.9 20.5 10.1 7 5.9 11.5 14.9 11.5 14.9 0 0 15.3-1.1 30.4-0.3 18.9 0.8 37.6 4.3 37.6 4.3 0 0-17.8-49.4-53-78.1-8.2-6.7-20-8.9-20-8.9zm193 103l34 59 33 2c0 0 7.2 0.8 13.5 3.5 7.9 3.3 14.5 9.5 14.5 9.5 0 0 9.4 12 17.8 24.7 33.5 51.1 62.2 105.3 62.2 105.3l37-62c0 0-32.3-59-72.6-111.6-4.9-6.4-11.4-11.4-11.4-11.4 0 0-11.5-8.1-24.3-12.6-11.8-4.2-24.7-5.4-24.7-5.4zm189 392l-24 50c0 0 16.8 7.8 34 9.2 30.1 2.4 61-11.2 61-11.2 0 0-5.5 18.1-13.5 34.9-8 16.7-18.5 32.1-18.5 32.1 0 0-7.2 12.6-18 20.4-7.9 5.7-18 8.6-18 8.6 0 0 12.2 12 26.8 18.8 14 6.5 30.2 8.2 30.2 8.2 0 0 13.9-12.3 25.8-26.3 7.6-9.1 14.2-19 14.2-19 0 0 8.1-12.2 14.8-25.2 6.8-13.3 12.2-27.5 12.2-27.5 0 0 6.3-14.7 10.2-30 3.3-12.8 4.8-26 4.8-26 0 0 2.7-12.6 2.3-25.2-0.5-12.9-4.3-25.8-4.3-25.8 0 0-2.2-13.9-6.8-26.9-5.8-16.2-15.2-31.1-15.2-31.1l-36-55-36 63 23 42c0 0 7.3 15.9 2.2 26.8-3.9 8.1-15.2 13.2-15.2 13.2 0 0-11.9 4-24 4.8-15.9 1.1-32-2.8-32-2.8z"/>
			<path id="Layer 3" class="s1" d="m670 129h-77c0 0-23.4 2.3-42.1 13-15.1 8.6-26.9 23-26.9 23l-185 306c0 0-8.3 14.2-15.1 29.1-6.8 15.1-11.9 30.9-11.9 30.9 0 0-4 18.2-4.4 36.5-0.3 16.7 2.4 33.5 2.4 33.5 0 0 2.5 14.1 7.2 27.3 5.8 16.4 14.8 31.7 14.8 31.7 0 0 7.3 12.2 16.9 22 9.4 9.6 21.1 17 21.1 17 0 0 7.2 4 14.9 6.8 12.1 4.4 25.1 6.2 25.1 6.2l19-1c0 0 10.7-1 20.1-4.8 11.9-4.9 21.9-14.2 21.9-14.2 0 0-16.8-2-31.1-9-14.2-7-25.9-19-25.9-19 0 0-11.2-6.8-19.4-16.3-8.3-9.5-13.6-21.7-13.6-21.7 0 0-3.7-7.1-6.4-14.5-3.6-10-5.6-20.5-5.6-20.5 0 0-1.5-7.3-1.3-14.5 0.2-7.8 2.3-15.5 2.3-15.5 0 0 1.7-12.1 5.8-23.3 3.6-9.7 9.2-18.7 9.2-18.7l28-48 153-255c0 0 8.3-11.6 19.6-18.4 11.2-6.7 25.4-8.6 25.4-8.6l25-1zm-103-16l32-55c0 0 9.2-15 22.6-23 13.6-8.1 31.4-9 31.4-9l211-2-290 484c0 0-2-23.4-8.9-45.2-5.8-18-15.1-34.8-15.1-34.8l204-344-85-1c0 0-10.8 1.7-18.4 7.5-8.8 6.7-13.6 18.5-13.6 18.5 0 0-28.2-0.3-56.1 2.1-7 0.7-13.9 1.9-13.9 1.9z"/>
			<path id="VERIDIAN" class="s2" d="m86.6 876h-20.1l-50.1-131.2h18.6l41.5 110.5 41.7-110.5h18.4zm69.2 0v-131.2h83v14.9h-65.2v38.8h62.5v15h-62.5v47.5h66.8v15zm175.9-61.5q5.7 1.9 11.1 8.2 5.4 6.3 10.9 17.4l18 35.9h-19.1l-16.8-33.7q-6.5-13.2-12.6-17.5-6.1-4.3-16.6-4.3h-19.4v55.5h-17.7v-131.2h40.1q22.5 0 33.5 9.4 11.1 9.4 11.1 28.4 0 12.3-5.8 20.5-5.7 8.2-16.7 11.4zm-22.1-55.2h-22.4v46.6h22.4q12.8 0 19.3-5.9 6.6-5.9 6.6-17.4 0-11.6-6.6-17.4-6.5-5.9-19.3-5.9zm85 116.7v-131.2h17.7v131.2zm53.1 0v-131.2h36.5q38.1 0 56 15.9 17.8 15.8 17.8 49.5 0 34-17.9 49.9-18 15.9-55.9 15.9zm39.2-116.7h-21.4v102.1h21.4q27.2 0 39.7-12.3 12.7-12.3 12.7-38.9 0-26.3-12.7-38.5-12.5-12.4-39.7-12.4zm99.4 116.7v-131.2h17.7v131.2zm36.8 0l50.1-131.2h20.1l50 131.2h-18.4l-12-33.7h-59.1l-12 33.7zm84.3-48.4l-24.1-65.4-24.1 65.4zm55.1 48.4v-131.2h23.9l58.2 109.7v-109.7h17.2v131.2h-23.9l-58.2-109.8v109.8z"/>
		</g>
	</g>
</svg>